<svg width="24" height="24" viewBox="0 0 24 24" fill="none" xmlns="http://www.w3.org/2000/svg">
<path d="M21 4H3C2.44772 4 2 4.44772 2 5V19C2 19.5523 2.44772 20 3 20H21C21.5523 20 22 19.5523 22 19V5C22 4.44772 21.5523 4 21 4Z" stroke="currentColor" stroke-width="2" stroke-linecap="round" stroke-linejoin="round"/>
<path d="M17 9H7C6.44772 9 6 9.44772 6 10V14C6 14.5523 6.44772 15 7 15H17C17.5523 15 18 14.5523 18 14V10C18 9.44772 17.5523 9 17 9Z" stroke="currentColor" stroke-width="2" stroke-linecap="round" stroke-linejoin="round"/>
</svg>
