<svg width="64" height="64" viewBox="0 0 64 64" fill="none" xmlns="http://www.w3.org/2000/svg">
<circle cx="32" cy="32" r="32" fill="#F44336"/>
<path d="M48.42 35.08L43.12 33.08C42.06 32.68 40.87 33.03 40.23 33.95L38.03 37.08C33.68 35.13 28.87 30.32 26.92 25.97L30.05 23.77C30.97 23.13 31.32 21.94 30.92 20.88L28.92 15.58C28.53 14.54 27.42 13.93 26.36 14.15L17.77 15.93C16.82 16.12 16.08 16.92 16.02 17.89C15.55 25.87 18.25 33.6 23.51 38.86C28.77 44.12 36.5 46.82 44.48 46.35C45.45 46.29 46.25 45.55 46.44 44.6L48.22 36.01C48.44 34.95 47.83 33.84 46.79 33.45L48.42 35.08Z" fill="white" transform="rotate(135 32 32)"/>
</svg>
